<svg xmlns="http://www.w3.org/2000/svg" xmlns:xlink="http://www.w3.org/1999/xlink" viewBox="0 0 392.2 116.84" xmlns:v="https://vecta.io/nano"><path d="M354.26 110.86c-.82 1.49-2.08 2.36-3.4 2.36H6.13c-1.38 0-2.5-1.4-2.5-3.14V6.77c0-1.73 1.12-3.14 2.5-3.14H350.2c.97 0 1.88.62 2.49 1.68l35.12 48.6c.96 1.33 1.01 3.12.12 4.5l-33.68 52.44z" fill="#fff" stroke="#010101" stroke-miterlimit="10" stroke-width="7.26"/><g fill="#010101"><path d="M70.6 84.46c-7.35 0-13.24-2.59-17.67-7.76-4.28-5.02-6.42-11.11-6.42-18.28s2.14-13.3 6.42-18.28c4.46-5.17 10.35-7.76 17.67-7.76s13.26 2.59 17.67 7.76c.51.6.77 1.19.77 1.75 0 .72-.39 1.39-1.18 2.02l-4.07 3.29c-.63.52-1.22.77-1.78.77-.72 0-1.38-.38-1.98-1.14-2.31-2.91-5.47-4.37-9.47-4.37s-6.95 1.39-9.24 4.17c-2.51 3.05-3.76 6.98-3.76 11.79s1.25 8.86 3.76 11.79c2.37 2.78 5.48 4.17 9.31 4.17s7.1-1.46 9.41-4.37c.6-.76 1.26-1.14 1.98-1.14.56 0 1.15.26 1.78.77l4.07 3.29c.78.63 1.18 1.3 1.18 2.02 0 .56-.26 1.14-.77 1.75-4.43 5.17-10.33 7.76-17.67 7.76zm37.61-.67h-5.85c-1.28 0-1.92-.57-1.92-1.71 0-.31.04-.6.13-.87l15.76-45.97c.49-1.45 1.5-2.17 3.03-2.17h10.96c1.52 0 2.53.73 3.02 2.19l15.76 45.97c.09.27.13.55.13.84 0 1.16-.64 1.74-1.91 1.74h-6.16c-1.52 0-2.52-.72-3.01-2.15l-5.03-15.15h-16.88l-5.03 15.15c-.49 1.43-1.5 2.15-3.02 2.15zm11.41-27.38h10.18l-5.09-15.32-5.09 15.32z"/><use xlink:href="#B"/><path d="m236.27,84.46c-6.34,0-11.7-2.5-16.09-7.49-.47-.56-.71-1.14-.71-1.75,0-.72.4-1.38,1.2-1.98l4.18-3.16c.6-.45,1.19-.67,1.77-.67.8,0,1.44.39,1.91,1.18,1.54,2.53,4.17,3.8,7.89,3.8,2.83,0,5.09-.72,6.79-2.15,1.47-1.23,2.21-2.78,2.21-4.64,0-2.42-1.45-4.24-4.36-5.45l-7.83-3.24c-6.56-2.71-9.85-6.99-9.85-12.82,0-4.5,1.8-8.13,5.41-10.9,2.44-1.87,5.63-2.8,9.58-2.8,5.4,0,9.61,1.78,12.63,5.34.47.56.71,1.14.71,1.75,0,.72-.4,1.38-1.21,1.98l-4.19,3.16c-.6.45-1.2.67-1.78.67-.81,0-1.44-.38-1.91-1.15-.96-1.56-2.38-2.34-4.26-2.34-1.48,0-2.58.36-3.32,1.07-.6.58-.91,1.27-.91,2.07,0,1.87,1.71,3.51,5.13,4.91l7.07,2.91c6.66,2.74,10.04,7.52,10.13,14.32,0,4.18-1.56,7.99-4.67,11.41-3.65,3.98-8.83,5.98-15.52,5.98Z"/><use xlink:href="#B" x="111.06"/><circle cx="312.81" cy="77.76" r="6.7"/></g><defs ><path id="B" d="m173.91,83.79c-1.79,0-2.69-.88-2.69-2.65v-38h-11.86c-1.79,0-2.69-.88-2.69-2.65v-4.77c0-1.77.9-2.65,2.69-2.65h34.47c1.79,0,2.69.89,2.69,2.65v4.77c0,1.77-.9,2.65-2.69,2.65h-11.86v38c0,1.77-.9,2.65-2.69,2.65h-5.38Z"/></defs></svg>