<svg xmlns="http://www.w3.org/2000/svg" width="187" height="58" fill="none"><path fill="#fff" stroke="#010101" stroke-miterlimit="10" stroke-width="5.01" d="M167.864 53.453c-.389.702-.975 1.111-1.602 1.111H4.179c-.647 0-1.179-.66-1.179-1.472V4.525c0-.818.525-1.472 1.18-1.472h161.775c.457 0 .886.293 1.172.79l16.517 22.843c.45.627.477 1.465.061 2.112L167.87 53.453h-.006Z"/><path fill="#010101" d="M34.492 41.044c-3.456 0-6.223-1.213-8.31-3.646-2.01-2.358-3.019-5.22-3.019-8.593s1.002-6.256 3.02-8.593c2.093-2.433 4.867-3.646 8.31-3.646 3.441 0 6.236 1.213 8.308 3.646.246.286.362.559.362.825 0 .334-.184.654-.552.947l-1.909 1.547c-.293.245-.572.36-.838.36-.334 0-.648-.176-.934-.537-1.084-1.37-2.57-2.052-4.458-2.052-1.888 0-3.272.654-4.342 1.956-1.18 1.431-1.773 3.278-1.773 5.54 0 2.263.587 4.164 1.773 5.54 1.118 1.309 2.576 1.956 4.376 1.956 1.8 0 3.34-.681 4.424-2.05.286-.355.593-.54.934-.54.266 0 .545.123.838.362l1.909 1.547c.368.293.552.613.552.947 0 .266-.123.538-.361.825-2.086 2.433-4.854 3.646-8.31 3.646v.013ZM52.174 40.724h-2.747c-.6 0-.9-.266-.9-.804 0-.15.02-.286.062-.41l7.41-21.608c.23-.681.708-1.022 1.424-1.022h5.153c.716 0 1.193.34 1.425 1.029l7.41 21.609c.04.122.06.259.06.395 0 .545-.3.818-.9.818h-2.896c-.716 0-1.186-.334-1.418-1.009l-2.365-7.121h-7.935l-2.365 7.121c-.232.675-.709 1.009-1.425 1.009l.007-.007Zm5.365-12.873h4.785l-2.393-7.203-2.392 7.203ZM83.067 40.724c-.846 0-1.262-.416-1.262-1.247V21.616H76.23c-.846 0-1.261-.416-1.261-1.247v-2.242c0-.831.422-1.247 1.26-1.247h16.21c.845 0 1.261.416 1.261 1.247v2.242c0 .831-.422 1.247-1.26 1.247h-5.577v17.86c0 .832-.422 1.248-1.26 1.248H83.066ZM112.384 41.044c-2.979 0-5.501-1.172-7.566-3.523-.218-.266-.334-.538-.334-.825 0-.334.191-.647.566-.933l1.963-1.486c.279-.211.559-.313.831-.313.375 0 .675.184.893.552.723 1.192 1.957 1.785 3.709 1.785 1.329 0 2.392-.334 3.19-1.008.688-.58 1.036-1.309 1.036-2.181 0-1.138-.682-1.99-2.052-2.562l-3.681-1.52c-3.088-1.274-4.628-3.285-4.628-6.024 0-2.113.845-3.823 2.542-5.125 1.145-.879 2.652-1.315 4.499-1.315 2.536 0 4.519.838 5.937 2.508.218.266.334.538.334.824 0 .335-.191.648-.565.934l-1.97 1.486c-.287.211-.566.313-.839.313-.382 0-.675-.177-.9-.545-.45-.736-1.118-1.097-2.004-1.097-.695 0-1.213.17-1.561.504-.286.273-.422.6-.422.975 0 .879.804 1.649 2.413 2.31l3.326 1.37c3.129 1.287 4.717 3.53 4.765 6.732 0 1.97-.729 3.755-2.195 5.363-1.718 1.874-4.151 2.808-7.3 2.808l.013-.007ZM135.281 40.724c-.845 0-1.261-.416-1.261-1.247V21.616h-5.576c-.845 0-1.261-.416-1.261-1.247v-2.242c0-.831.423-1.247 1.261-1.247h16.21c.845 0 1.261.416 1.261 1.247v2.242c0 .831-.423 1.247-1.261 1.247h-5.576v17.86c0 .832-.423 1.248-1.261 1.248h-2.536ZM148.375 41.037a3.149 3.149 0 1 0 .002-6.298 3.149 3.149 0 0 0-.002 6.298Z"/></svg>