<svg xmlns="http://www.w3.org/2000/svg" width="65" height="71" fill="none"><path fill="#000" d="M32.512 70.85c-.123 0-.245-.01-.367-.029h-.038a2.445 2.445 0 0 1-.603-.174c-14.24-6.235-24.192-17.98-28.776-33.963C-.7 24.73.06 14.72.095 14.303a2.4 2.4 0 0 1 .904-1.69 2.417 2.417 0 0 1 1.854-.497c1.42.21 2.855.316 4.291.317 14.188 0 23.426-10.608 23.518-10.71a2.42 2.42 0 0 1 3.674.004c.092.098 9.334 10.706 23.523 10.706a29.528 29.528 0 0 0 4.292-.317 2.422 2.422 0 0 1 2.478 1.25c.155.29.25.609.276.937.034.419.797 10.43-2.635 22.387-4.586 15.986-14.54 27.73-28.793 33.97a2.42 2.42 0 0 1-.97.203l.005-.013ZM3.872 16.5c.012 6.42.908 12.809 2.663 18.986 4.307 14.829 13.03 25.374 25.966 31.357C45.435 60.86 54.166 50.319 58.459 35.49a69.834 69.834 0 0 0 2.663-18.99c-.8.055-1.598.082-2.39.082-13.1 0-22.421-7.268-26.237-10.875-3.82 3.603-13.14 10.875-26.24 10.875-.79 0-1.59-.027-2.388-.082h.006Z"/><path fill="#000" d="M30.536 51.764a3.099 3.099 0 0 1-2.31-1.03L15.828 36.89a3.08 3.08 0 0 1 .278-4.322 3.1 3.1 0 0 1 4.339.213l10.092 11.27 18.465-20.626a3.099 3.099 0 0 1 5.4 1.88 3.08 3.08 0 0 1-.781 2.229L32.843 50.734a3.09 3.09 0 0 1-2.307 1.03Z"/></svg>