<svg xmlns="http://www.w3.org/2000/svg" width="98" height="75" fill="none"><path fill="#000" d="M8.983 64.676A251.78 251.78 0 0 0 0 59.734a160.236 160.236 0 0 1 38.693-7.424v15.123A160.236 160.236 0 0 0 0 74.858a410.577 410.577 0 0 1 8.983-10.182ZM89.01 64.516c3.014-1.75 6.011-3.41 8.99-4.98a160.244 160.244 0 0 0-38.718-7.268v15.124a160.244 160.244 0 0 1 38.716 7.267 416.475 416.475 0 0 0-8.988-10.143Z"/><path fill="#011014" d="M11.115 52.858c9.172-.843 18.4-.88 27.578-.108v15.123a157.38 157.38 0 0 0-27.578.109V52.858ZM59.282 52.71v15.123a157.57 157.57 0 0 1 27.59 0V52.709a157.57 157.57 0 0 0-27.59 0Z"/><path fill="#011014" d="M84.369 39.089a3.469 3.469 0 0 0 0-4.099l-1.288-1.764a3.468 3.468 0 0 1-.502-3.137l.692-2.067a3.473 3.473 0 0 0-1.262-3.898l-1.767-1.274a3.46 3.46 0 0 1-1.437-2.83l.011-2.182a3.47 3.47 0 0 0-.659-2.053 3.45 3.45 0 0 0-1.742-1.263l-2.076-.663a3.454 3.454 0 0 1-2.239-2.246l-.661-2.08a3.463 3.463 0 0 0-1.26-1.748 3.443 3.443 0 0 0-2.045-.661l-2.177.011a3.442 3.442 0 0 1-2.82-1.44l-1.27-1.775a3.438 3.438 0 0 0-3.885-1.26l-2.067.685a3.443 3.443 0 0 1-3.127-.496L51.03 1.556a3.442 3.442 0 0 0-4.086 0l-1.758 1.293a3.446 3.446 0 0 1-3.11.49l-2.073-.686a3.438 3.438 0 0 0-3.885 1.267l-1.271 1.773a3.452 3.452 0 0 1-2.82 1.44l-2.176-.01a3.442 3.442 0 0 0-2.046.66 3.462 3.462 0 0 0-1.259 1.75l-.662 2.079a3.471 3.471 0 0 1-2.238 2.247l-2.073.664c-.7.224-1.31.667-1.743 1.263a3.47 3.47 0 0 0-.659 2.053l.011 2.183a3.472 3.472 0 0 1-1.436 2.83l-1.768 1.273a3.473 3.473 0 0 0-1.256 3.898l.684 2.072a3.474 3.474 0 0 1-.503 3.137l-1.287 1.765a3.469 3.469 0 0 0 0 4.098l1.287 1.765a3.47 3.47 0 0 1 .503 3.137l-.684 2.073a3.475 3.475 0 0 0 1.256 3.898l1.768 1.274a3.457 3.457 0 0 1 1.436 2.82l-.01 2.184a3.472 3.472 0 0 0 .659 2.052 3.452 3.452 0 0 0 1.742 1.264l2.073.664a3.45 3.45 0 0 1 2.238 2.244l.662 2.08a3.461 3.461 0 0 0 1.259 1.748 3.443 3.443 0 0 0 2.046.662l2.176-.012a3.44 3.44 0 0 1 2.82 1.442l1.271 1.773a3.437 3.437 0 0 0 3.885 1.26l2.072-.681a3.433 3.433 0 0 1 3.126.496l1.759 1.292a3.442 3.442 0 0 0 4.085 0l1.759-1.292a3.44 3.44 0 0 1 3.126-.496l2.067.685a3.437 3.437 0 0 0 3.885-1.26l1.27-1.773a3.456 3.456 0 0 1 2.82-1.442l2.177.011a3.444 3.444 0 0 0 2.046-.661 3.463 3.463 0 0 0 1.259-1.748l.662-2.08a3.465 3.465 0 0 1 2.238-2.245l2.073-.664c.7-.224 1.31-.666 1.742-1.263a3.472 3.472 0 0 0 .66-2.053l-.027-2.186a3.472 3.472 0 0 1 1.437-2.83l1.767-1.274a3.474 3.474 0 0 0 1.265-3.9l-.686-2.079a3.475 3.475 0 0 1 .503-3.137l1.28-1.754Zm-2.261 5.055.682 2.072a2.954 2.954 0 0 1-1.078 3.331l-1.767 1.274a3.966 3.966 0 0 0-1.645 3.242l.011 2.183a2.953 2.953 0 0 1-.56 1.755c-.37.51-.893.888-1.492 1.078l-2.072.663a3.962 3.962 0 0 0-2.565 2.572l-.66 2.083a2.948 2.948 0 0 1-1.068 1.491 2.93 2.93 0 0 1-1.74.567l-2.215-.013a3.952 3.952 0 0 0-3.21 1.65l-1.27 1.774a2.948 2.948 0 0 1-3.32 1.085l-2.066-.686a3.943 3.943 0 0 0-3.58.569l-1.76 1.293a2.944 2.944 0 0 1-3.49 0l-1.758-1.293a3.95 3.95 0 0 0-3.58-.569l-2.06.686a2.938 2.938 0 0 1-3.32-1.083l-1.27-1.775a3.967 3.967 0 0 0-3.21-1.651l-2.212.01a2.93 2.93 0 0 1-1.74-.565 2.946 2.946 0 0 1-1.068-1.49l-.662-2.08a3.982 3.982 0 0 0-2.565-2.573l-2.07-.665A2.937 2.937 0 0 1 20.238 58a2.953 2.953 0 0 1-.562-1.755l.011-2.183a3.983 3.983 0 0 0-1.646-3.242l-1.767-1.274a2.947 2.947 0 0 1-1.077-3.33l.684-2.073a3.983 3.983 0 0 0-.567-3.593l-1.289-1.765a2.948 2.948 0 0 1 0-3.5l1.289-1.765a3.98 3.98 0 0 0 .566-3.593l-.683-2.065a2.956 2.956 0 0 1 1.08-3.33l1.766-1.274a3.971 3.971 0 0 0 1.647-3.241l-.012-2.183a2.95 2.95 0 0 1 .56-1.755c.37-.51.891-.888 1.49-1.078l2.073-.664a3.959 3.959 0 0 0 2.562-2.572l.662-2.08a2.948 2.948 0 0 1 1.068-1.492 2.931 2.931 0 0 1 1.74-.567l2.212.011a3.949 3.949 0 0 0 3.21-1.651l1.27-1.773a2.95 2.95 0 0 1 3.32-1.082l2.067.685a3.922 3.922 0 0 0 3.58-.568l1.759-1.294a2.943 2.943 0 0 1 3.49 0L52.5 3.248a3.922 3.922 0 0 0 3.58.569l2.067-.685a2.94 2.94 0 0 1 3.32 1.082l1.27 1.773a3.963 3.963 0 0 0 3.202 1.651l2.211-.011a2.932 2.932 0 0 1 1.743.567c.506.37.88.893 1.07 1.492l.661 2.08a3.975 3.975 0 0 0 2.565 2.572l2.073.664c.599.19 1.122.567 1.491 1.077.37.51.566 1.126.56 1.756l-.01 2.183a3.983 3.983 0 0 0 1.646 3.241l1.765 1.275a2.944 2.944 0 0 1 1.077 3.33l-.682 2.073a3.985 3.985 0 0 0 .567 3.593l1.288 1.764a2.953 2.953 0 0 1 0 3.501l-1.288 1.765a3.977 3.977 0 0 0-.567 3.584h-.001Z"/><path fill="#000" d="M48.992 9.363c-15.233 0-27.581 12.392-27.581 27.677s12.348 27.676 27.58 27.676c15.233 0 27.583-12.391 27.583-27.676 0-15.285-12.348-27.677-27.582-27.677Zm0 54.143c-14.57 0-26.376-11.847-26.376-26.466 0-14.62 11.807-26.467 26.376-26.467 14.57 0 26.375 11.847 26.375 26.467S63.56 63.506 48.992 63.506Z"/><path fill="#000" d="M53.639 18.334a19.154 19.154 0 0 0-11.144.56 19.222 19.222 0 0 0-8.954 6.68 19.335 19.335 0 0 0-1.025 21.403 19.24 19.24 0 0 0 8.276 7.508 19.157 19.157 0 0 0 11.038 1.63 19.188 19.188 0 0 0 10.08-4.8 19.295 19.295 0 0 0 5.724-9.61 19.34 19.34 0 0 0-2.175-14.593 19.222 19.222 0 0 0-11.82-8.778ZM66.293 41.37a17.908 17.908 0 0 1-5.313 8.92 17.809 17.809 0 0 1-9.355 4.453A17.78 17.78 0 0 1 41.38 53.23a17.857 17.857 0 0 1-7.68-6.97 17.945 17.945 0 0 1 .951-19.863 17.84 17.84 0 0 1 8.311-6.198 17.777 17.777 0 0 1 10.343-.52 17.84 17.84 0 0 1 10.97 8.147 17.95 17.95 0 0 1 2.018 13.543Z"/><path fill="#02242E" d="m27.299 24.399 1.517.1.942-1.2.375 1.48 1.427.529-1.286.815-.06 1.525-1.17-.976-1.464.414.563-1.418-.844-1.27ZM70.75 24.509l-.845 1.269.563 1.418-1.465-.415-1.169.975-.06-1.525-1.287-.814 1.427-.53.376-1.477.942 1.197 1.517-.098ZM48.93 62.213l-.674-1.369-1.505-.219 1.09-1.066-.257-1.504 1.345.71 1.346-.71-.256 1.504 1.09 1.066-1.507.22-.673 1.368ZM34.401 18.056a.684.684 0 0 0-.27.616c.04.3.17.582.37.808.474.595.935.712 1.382.35.135-.108.253-.235.352-.378.1-.144.192-.292.276-.446l.563.707a2.755 2.755 0 0 1-.737.87c-.465.374-.93.524-1.393.452-.464-.072-.9-.366-1.307-.882a2.397 2.397 0 0 1-.492-.99 1.663 1.663 0 0 1 .073-.975c.136-.33.357-.617.64-.833.33-.266.718-.453 1.13-.547l.27.862a3.528 3.528 0 0 0-.45.139c-.148.06-.285.143-.407.247ZM40.348 18.052l-2.067 1.1-1.858-3.488 2.068-1.106.402.757-1.13.602.293.55 1.043-.556.402.756-1.043.557.352.668 1.13-.602.408.762ZM42.049 15.876l.426 1.376-1.019.316-1.168-3.78 1.235-.385c1.023-.32 1.65-.107 1.884.639.135.438.027.844-.326 1.216l1.608 1.306-1.156.359-1.223-1.134-.261.087Zm-.237-.768.19-.06c.355-.11.485-.324.389-.64-.084-.26-.299-.335-.645-.226l-.2.061.266.865ZM47.28 16.271l-1.06.108-.328-3.066-.957.103-.093-.87 2.972-.32.093.87-.955.104.328 3.071ZM49.39 16.206l.175-3.955 1.07.046-.175 3.956-1.07-.047ZM52.937 16.584l-1.03-.2.754-3.888 2.288.444-.162.843-1.256-.244-.152.742 1.16.224-.155.843-1.166-.229-.281 1.465ZM55.378 17.205l1.31-3.734 1.005.356-1.3 3.735-1.015-.357ZM59.8 19.205l-2.07-1.1 1.846-3.499 2.07 1.1-.401.757-1.13-.6-.29.55 1.044.555-.4.756-1.045-.554-.348.66 1.13.599-.407.776ZM64.714 20.356c-.418.512-.879.793-1.381.842-.503.048-1.01-.135-1.524-.551l-.99-.807 2.482-3.074 1.06.864c.491.4.77.835.833 1.305.063.47-.094.943-.48 1.42Zm-.879-.67c.227-.283.34-.536.34-.757a.798.798 0 0 0-.341-.616l-.241-.196-1.397 1.716.184.15c.252.205.495.282.731.23.237-.05.477-.227.72-.528h.004ZM39.904 59.212a.68.68 0 0 0 .667-.074c.238-.185.417-.437.512-.725.276-.709.146-1.17-.392-1.386a1.734 1.734 0 0 0-.502-.117 5.116 5.116 0 0 0-.524-.018l.328-.842c.383-.01.765.06 1.12.206.558.218.92.548 1.088.99.167.44.133.965-.103 1.573-.128.35-.336.666-.607.921a1.64 1.64 0 0 1-.879.424c-.353.047-.712 0-1.04-.139a2.809 2.809 0 0 1-1.036-.707l.61-.665c.108.114.223.222.344.321.125.1.264.181.414.238ZM36.926 54.046l1.987 1.243-2.086 3.36-1.989-1.244.453-.728 1.083.678.328-.53-1.005-.63.453-.727 1.004.63.393-.63-1.082-.677.46-.745ZM34.198 53.656l.974-1.058.783.726-2.68 2.906-.947-.882c-.788-.73-.917-1.38-.39-1.954.31-.337.715-.445 1.212-.326l.323-2.049.888.824-.362 1.627.199.186Zm-.538.59-.147-.135c-.274-.252-.521-.26-.745-.018-.185.2-.143.424.126.673l.156.144.61-.663ZM31.924 48.912l.628.864-2.483 1.82.57.78-.705.515-1.759-2.424.704-.515.566.779 2.48-1.82ZM30.812 47.112l-3.5 1.827-.494-.954 3.5-1.827.494.954ZM29.365 43.84l.343.996-3.728 1.294-.762-2.211.808-.28.419 1.215.712-.252-.387-1.12.809-.282.387 1.12 1.399-.48ZM28.68 41.408l-3.877.73-.198-1.056 3.878-.729.197 1.055ZM28.197 36.566l.085 2.348-3.942.152-.086-2.349.854-.031.048 1.28.62-.023-.044-1.185.856-.032.043 1.186.744-.027-.047-1.281.869-.038ZM26.732 31.72c.65.105 1.123.364 1.417.779.294.414.39.949.287 1.6l-.2 1.26-3.894-.623.212-1.342c.1-.628.337-1.087.711-1.377.373-.297.86-.388 1.467-.297Zm-.137 1.103c-.356-.058-.632-.03-.827.085a.794.794 0 0 0-.362.604l-.05.308 2.184.349.037-.236c.05-.32 0-.57-.167-.75-.167-.179-.433-.293-.815-.36ZM72.672 33.852a.684.684 0 0 0-.397-.542 1.502 1.502 0 0 0-.879-.082c-.754.113-1.085.457-.996 1.03.025.171.075.337.148.492.075.16.16.315.251.464l-.891.135a2.733 2.733 0 0 1-.377-1.075c-.09-.588.012-1.067.306-1.437.294-.37.764-.602 1.41-.697a2.377 2.377 0 0 1 1.1.066c.318.099.598.291.805.553.216.283.354.619.4.973.063.42.031.848-.092 1.254l-.88-.198c.045-.15.08-.304.106-.46.02-.158.015-.32-.014-.476ZM69.707 39.023l.079-2.35 3.943.135-.08 2.349-.854-.03.043-1.279-.62-.021-.041 1.185-.854-.03.04-1.184-.745-.026-.042 1.28-.87-.03ZM70.73 41.586l-1.4-.315.236-1.044 3.847.875-.286 1.26c-.236 1.05-.734 1.49-1.492 1.317-.447-.103-.742-.4-.887-.892l-1.93.744.267-1.182 1.585-.505.06-.258Zm.781.178-.046.2c-.083.366.036.584.358.657.265.06.437-.088.519-.446l.046-.206-.877-.205ZM67.774 45.937l.43-.979 2.811 1.25.39-.883.797.354-1.21 2.745-.797-.354.388-.883-2.81-1.25ZM66.775 47.803l3.326 2.13-.576.906-3.326-2.13.576-.906ZM64.675 50.697l.687-.797 2.982 2.594-1.527 1.764-.647-.562.84-.972-.569-.492-.775.897-.645-.562.773-.898-1.119-.972ZM62.924 52.508l2.563 3.004-.814.7-2.568-3.005.82-.7ZM58.98 55.35l1.985-1.25 2.096 3.354-1.984 1.25-.455-.728 1.081-.68-.329-.529-1.004.63-.455-.727 1.005-.63-.396-.63-1.081.68-.462-.74ZM55.532 59.045c-.236-.618-.249-1.158-.037-1.622.212-.464.624-.814 1.236-1.049l1.192-.457 1.41 3.691-1.274.49c-.591.227-1.106.25-1.544.071-.438-.18-.766-.554-.983-1.124Zm1.02-.432c.13.336.292.561.487.676a.791.791 0 0 0 .702.012l.29-.113-.79-2.07-.222.085c-.303.116-.49.29-.564.52-.074.23-.043.527.096.89Z"/><path fill="#000" fill-rule="evenodd" d="M38.818 39.783c.993-.63 5.588-3.402 5.749-3.357 1.633 1.512 2.611 4.439 2.754 4.593.147-.15 3.045-7.449 11.658-13.965-.056.622-.948 3.993.186 7.688-6.6 3.655-11.341 12.303-11.532 12.288-.191-.015-5.135-6.088-8.815-7.247Z" clip-rule="evenodd"/><path fill="#000" d="m48.992 20.002.88 1.787 1.965.286-1.422 1.391.335 1.964-1.758-.927-1.757.927.335-1.964-1.422-1.391 1.966-.286.878-1.787ZM42.9 21.427l.65 1.318 1.448.21-1.049 1.027.248 1.448-1.297-.683-1.296.683.249-1.448-1.049-1.026 1.448-.21.648-1.319ZM55.083 21.427l.65 1.318 1.448.21-1.049 1.027.248 1.448-1.297-.683-1.296.683.249-1.448-1.049-1.026 1.448-.21.648-1.319ZM48.992 48.65l.88 1.787 1.965.286-1.422 1.391.335 1.964-1.758-.927-1.757.927.335-1.964-1.422-1.391 1.966-.286.878-1.787ZM42.9 48.65l.65 1.318 1.448.21-1.049 1.026.248 1.449-1.297-.684-1.296.684.249-1.449-1.049-1.026 1.448-.21.648-1.318ZM55.083 48.65l.65 1.318 1.448.21-1.049 1.026.248 1.449-1.297-.684-1.296.684.249-1.449-1.049-1.026 1.448-.21.648-1.318Z"/><path fill="#3A3A3A" d="M11.115 52.858v15.124a160.216 160.216 0 0 1 75.76-.153V52.705a160.217 160.217 0 0 0-75.76.153Z"/><path fill="#FFCD00" d="m17.482 56.354.88 1.61a169.14 169.14 0 0 1 1.962-.089c-.475.551-.949 1.105-1.422 1.66l.336 1.9a176.93 176.93 0 0 0-1.759-.58c-.586.428-1.172.86-1.758 1.295l.334-2.037c-.47-.362-.942-.723-1.414-1.082.65-.241 1.302-.478 1.955-.71.299-.654.594-1.31.886-1.967ZM80.885 56.227l.879 1.965c.653.23 1.305.465 1.957.702l-1.416 1.087c.112.678.224 1.357.334 2.035-.586-.433-1.17-.862-1.752-1.288-.586.194-1.172.39-1.758.588l.335-1.9c-.473-.555-.947-1.107-1.421-1.657.655.025 1.31.052 1.964.082l.878-1.614ZM30.878 58.872a2.402 2.402 0 0 1-.8 1.843c-.535.49-1.277.796-2.227.926-.88.119-1.649.068-2.322-.159V59.87c.459.142.928.248 1.404.315.35.044.703.044 1.052 0 .32-.026.624-.142.88-.335a.857.857 0 0 0 .305-.69.646.646 0 0 0-.135-.41 1.258 1.258 0 0 0-.395-.31c-.345-.16-.7-.298-1.064-.411-.4-.118-.78-.292-1.13-.518a2.055 2.055 0 0 1-.6-.668 1.957 1.957 0 0 1-.224-.974 2.46 2.46 0 0 1 .737-1.818c.491-.485 1.17-.79 2.04-.905a4.553 4.553 0 0 1 1.22-.006c.413.057.82.15 1.218.278l-.563 1.416a7.145 7.145 0 0 0-1.087-.24 3.377 3.377 0 0 0-.845 0c-.28.024-.546.141-.753.333a.871.871 0 0 0-.264.63.66.66 0 0 0 .107.386c.088.12.205.218.339.283.358.166.726.309 1.102.428.768.266 1.294.57 1.58.903.298.371.45.84.425 1.316ZM39.407 60.378c-.58.036-1.16.076-1.742.12V56.96a239.49 239.49 0 0 0-3.265.275v3.53c-.586.055-1.168.113-1.746.174v-8.192c.581-.06 1.163-.118 1.746-.174v3.21c1.088-.104 2.177-.196 3.265-.276v-3.197c.58-.045 1.161-.087 1.742-.126v8.193ZM46.835 60.082l-.599-1.937c-1.005.02-2.01.05-3.014.09l-.6 1.973c-.628.027-1.256.058-1.883.092a5145.48 5145.48 0 0 1 2.912-8.354 183.88 183.88 0 0 1 2.142-.064c.975 2.718 1.95 5.444 2.926 8.18-.627.004-1.255.01-1.884.02Zm-1.017-3.384a658.403 658.403 0 0 1-.936-2.972c-.069-.23-.125-.41-.15-.544-.124.481-.48 1.674-1.067 3.58.718-.026 1.435-.047 2.153-.064ZM49.36 57.687v-1.401c1.01 0 2.022.009 3.034.026v1.406a136.15 136.15 0 0 0-3.034-.031ZM59.258 60.364a165.236 165.236 0 0 0-5.771-.252V58.91l2.073-2.017c.615-.6 1.015-1.008 1.204-1.246.165-.197.302-.416.405-.65.083-.2.126-.414.126-.63a.97.97 0 0 0-.274-.748 1.103 1.103 0 0 0-.73-.274c-.321-.013-.64.049-.933.182a4.55 4.55 0 0 0-.943.59l-.95-1.14a5.868 5.868 0 0 1 1.013-.7 3.5 3.5 0 0 1 .88-.298c.349-.068.705-.092 1.06-.073.472.014.935.132 1.357.346.376.19.693.478.92.834.218.35.332.758.327 1.172.004.36-.065.717-.2 1.05a3.768 3.768 0 0 1-.621.98 14.3 14.3 0 0 1-1.482 1.41l-1.062.948v.08c1.2.046 2.398.106 3.596.18l.005 1.46ZM63.375 55.433c.797.07 1.43.35 1.902.843.47.49.706 1.124.706 1.897 0 .915-.283 1.588-.85 2.025-.566.437-1.38.607-2.433.52-.917-.076-1.658-.277-2.222-.61V58.61c.328.191.675.345 1.037.459.364.122.74.202 1.122.237 1.064.088 1.595-.294 1.595-1.16 0-.825-.55-1.291-1.65-1.386a4.01 4.01 0 0 0-.66.006 4.375 4.375 0 0 0-.586.082l-.695-.42.31-4.15c1.492.108 2.981.234 4.469.378v1.469c-.98-.098-1.96-.188-2.94-.267l-.152 1.595.197-.024c.283-.031.568-.03.85.003ZM67.195 57.564c0-1.62.344-2.788 1.032-3.5.687-.71 1.717-.982 3.086-.794.373.043.742.124 1.1.24v1.386a4.673 4.673 0 0 0-.988-.252c-.594-.084-1.079-.06-1.456.074a1.508 1.508 0 0 0-.845.688c-.188.328-.299.813-.332 1.455l.073.008c.377-.588.965-.833 1.78-.724a2.547 2.547 0 0 1 1.723.927c.415.52.628 1.186.628 1.995 0 .875-.251 1.53-.74 1.968-.488.438-1.178.597-2.053.482a3.34 3.34 0 0 1-1.588-.618 3.238 3.238 0 0 1-1.045-1.349 4.93 4.93 0 0 1-.375-1.986Zm2.968 2.563c.37.049.655-.037.853-.258.197-.221.296-.561.297-1.02a1.633 1.633 0 0 0-.277-.983 1.175 1.175 0 0 0-.84-.456 1.157 1.157 0 0 0-.901.227.921.921 0 0 0-.377.75c-.008.417.115.825.352 1.168a1.257 1.257 0 0 0 .891.572h.002Z"/></svg>